<svg width="17" height="22" viewBox="0 0 17 22" fill="none" xmlns="http://www.w3.org/2000/svg">
<path d="M8.01553 21.1275C2.04563 12.4729 0.9375 11.5847 0.9375 8.40402C0.9375 4.04717 4.46941 0.515259 8.82627 0.515259C13.1831 0.515259 16.715 4.04717 16.715 8.40402C16.715 11.5847 15.6069 12.4729 9.637 21.1275C9.24523 21.6935 8.40726 21.6934 8.01553 21.1275ZM8.82627 11.691C10.6416 11.691 12.1133 10.2194 12.1133 8.40402C12.1133 6.58866 10.6416 5.11704 8.82627 5.11704C7.01091 5.11704 5.53928 6.58866 5.53928 8.40402C5.53928 10.2194 7.01091 11.691 8.82627 11.691Z" fill="#4E66DF"/>
</svg>
