<svg width="17" height="17" viewBox="0 0 17 17" fill="none" xmlns="http://www.w3.org/2000/svg">
<path d="M12.3938 16.2118C9.12566 16.2076 5.9926 14.9075 3.68169 12.5965C1.37078 10.2856 0.0706423 7.15257 0.0664062 3.88444C0.0664062 2.90786 0.454352 1.97128 1.1449 1.28073C1.83545 0.590185 2.77203 0.20224 3.74861 0.20224C3.95541 0.200665 4.16186 0.219433 4.36498 0.258273C4.56134 0.287331 4.75438 0.335591 4.94132 0.40236C5.0728 0.448491 5.18996 0.528142 5.28121 0.633436C5.37247 0.73873 5.43466 0.86602 5.46163 1.00272L6.55829 5.80559C6.58785 5.93596 6.58429 6.07166 6.54794 6.2003C6.51158 6.32894 6.44359 6.44642 6.35017 6.54204C6.2461 6.6541 6.2381 6.66211 5.25351 7.17441C6.04198 8.90413 7.42537 10.2932 9.15184 11.0888C9.67215 10.0962 9.68016 10.0882 9.79223 9.9841C9.88784 9.89067 10.0053 9.82268 10.134 9.78633C10.2626 9.74997 10.3983 9.74641 10.5287 9.77597L15.3315 10.8726C15.4639 10.9033 15.5862 10.9672 15.687 11.0582C15.7879 11.1492 15.8639 11.2644 15.9079 11.3929C15.9754 11.5829 16.0263 11.7785 16.06 11.9773C16.0922 12.1785 16.1083 12.3819 16.108 12.5857C16.0932 13.5581 15.6944 14.4851 14.9985 15.1645C14.3026 15.8439 13.3663 16.2204 12.3938 16.2118Z" fill="#4E66DF"/>
</svg>
