<svg width="24" height="24" viewBox="0 0 24 24" fill="none" xmlns="http://www.w3.org/2000/svg">
<path d="M4.91547 0.672607C2.56523 0.672607 0.636719 2.55351 0.636719 4.84572V18.9904C0.636719 21.2826 2.56523 23.1635 4.91547 23.1635H19.4182C21.7684 23.1635 23.6969 21.2826 23.6969 18.9904V4.84572C23.6969 2.55351 21.7684 0.672607 19.4182 0.672607H4.91547ZM4.91547 2.71724H19.4182C20.6342 2.71724 21.6005 3.65968 21.6005 4.84572V18.9904C21.6005 20.1764 20.6342 21.1189 19.4182 21.1189H4.91547C3.6994 21.1189 2.7331 20.1764 2.7331 18.9904V4.84572C2.7331 3.65968 3.6994 2.71724 4.91547 2.71724ZM11.872 8.06442C11.1023 8.05643 10.4471 8.06442 10.0786 8.24013C9.83296 8.35593 9.64461 8.6195 9.75926 8.63148C9.90257 8.65145 10.226 8.71934 10.398 8.94696C10.6191 9.23848 10.6109 9.89739 10.6109 9.89739C10.6109 9.89739 10.7337 11.7104 10.312 11.938C10.0213 12.0938 9.62414 11.7783 8.7643 10.3367C8.32619 9.59389 7.99453 8.77524 7.99453 8.77524C7.99453 8.77524 7.93311 8.62349 7.81847 8.54363C7.67925 8.44379 7.48681 8.41184 7.48681 8.41184L5.43547 8.42382C5.43547 8.42382 5.12838 8.4358 5.01783 8.56359C4.91547 8.6834 5.00964 8.91901 5.00964 8.91901C5.00964 8.91901 6.61468 12.581 8.43264 14.4259C10.0991 16.1191 11.9908 16.0073 11.9908 16.0073H12.8506C12.8506 16.0073 13.1086 15.9794 13.2396 15.8436C13.3624 15.7158 13.3583 15.4762 13.3583 15.4762C13.3583 15.4762 13.3419 14.354 13.8742 14.1863C14.4024 14.0266 15.0739 15.2725 15.7905 15.7517C16.335 16.1151 16.7486 16.0353 16.7486 16.0353L18.6648 16.0073C18.6648 16.0073 19.6638 15.9474 19.1889 15.1767C19.152 15.1168 18.9146 14.6096 17.7681 13.5713C16.5643 12.4851 16.724 12.6608 18.1735 10.7799C19.0538 9.63383 19.4059 8.93498 19.2953 8.63148C19.1889 8.34795 18.542 8.42382 18.542 8.42382L16.3842 8.4358C16.3842 8.4358 16.2245 8.41584 16.1057 8.48372C15.9911 8.55161 15.9174 8.71135 15.9174 8.71135C15.9174 8.71135 15.5734 9.59789 15.119 10.3526C14.1608 11.942 13.7719 12.0299 13.6163 11.93C13.2519 11.6984 13.3419 11.0036 13.3419 10.5124C13.3419 8.96693 13.5835 8.32798 12.8752 8.16026C12.6418 8.10435 12.4698 8.06841 11.872 8.06442Z" fill="#4E66DF"/>
</svg>
