<svg width="25" height="24" viewBox="0 0 25 24" fill="none" xmlns="http://www.w3.org/2000/svg">
<path d="M20.9273 3.58153C19.8493 2.49258 18.5652 1.62919 17.15 1.0417C15.7348 0.454217 14.2168 0.1544 12.6845 0.159738C6.2642 0.159738 1.03157 5.39237 1.03157 11.8126C1.03157 13.8704 1.57247 15.8694 2.58372 17.6332L0.9375 23.6772L7.11083 22.0545C8.81585 22.9834 10.7325 23.4773 12.6845 23.4773C19.1047 23.4773 24.3374 18.2447 24.3374 11.8244C24.3374 8.70833 23.1262 5.78041 20.9273 3.58153ZM12.6845 21.5018C10.9442 21.5018 9.23916 21.0315 7.7458 20.1496L7.39304 19.9379L3.72432 20.9021L4.70029 17.3275L4.46512 16.963C3.49825 15.419 2.98486 13.6344 2.98352 11.8126C2.98352 6.47418 7.33425 2.12345 12.6727 2.12345C15.2596 2.12345 17.6937 3.1347 19.5163 4.96906C20.4188 5.86738 21.1339 6.9359 21.6204 8.11267C22.1068 9.28944 22.3549 10.5511 22.3501 11.8244C22.3737 17.1629 18.0229 21.5018 12.6845 21.5018ZM17.9994 14.2585C17.7054 14.1174 16.2709 13.4118 16.0122 13.306C15.7417 13.2119 15.5536 13.1649 15.3537 13.4471C15.1538 13.7411 14.6011 14.3996 14.4365 14.5877C14.2719 14.7876 14.0955 14.8111 13.8015 14.6583C13.5076 14.5171 12.5669 14.1997 11.4616 13.2119C10.5914 12.4359 10.0152 11.4834 9.83886 11.1894C9.67424 10.8955 9.81534 10.7426 9.9682 10.5897C10.0975 10.4604 10.2622 10.2487 10.4033 10.0841C10.5444 9.91948 10.6032 9.79014 10.6972 9.602C10.7913 9.4021 10.7443 9.23748 10.6737 9.09637C10.6032 8.95527 10.0152 7.5207 9.78006 6.93277C9.54489 6.36835 9.29796 6.4389 9.12158 6.42714H8.55716C8.35726 6.42714 8.05153 6.49769 7.78108 6.79166C7.52239 7.08563 6.76983 7.79115 6.76983 9.22572C6.76983 10.6603 7.81636 12.0478 7.95746 12.236C8.09857 12.4359 10.0152 15.3755 12.9314 16.6337C13.6252 16.9394 14.1661 17.1158 14.5894 17.2452C15.2831 17.4686 15.9181 17.4333 16.4237 17.3628C16.9882 17.2804 18.1523 16.6572 18.3875 15.9752C18.6344 15.2932 18.6344 14.717 18.5521 14.5877C18.4698 14.4584 18.2934 14.3996 17.9994 14.2585Z" fill="#4E66DF"/>
</svg>
